<?xml version="1.0" encoding="iso-8859-1"?>
<!-- Generator: Adobe Illustrator 19.0.0, SVG Export Plug-In . SVG Version: 6.00 Build 0)  -->
<svg xmlns="http://www.w3.org/2000/svg" xmlns:xlink="http://www.w3.org/1999/xlink" version="1.1" id="Capa_1" x="0px" y="0px" viewBox="0 0 218.465 218.465" style="enable-background:new 0 0 218.465 218.465;" xml:space="preserve" width="512px" height="512px">
<g>
	<g>
		<path d="M212.483,107.751c-1.051-3.891-2.058-7.694-3.036-11.387c-8.933-33.722-15.387-58.086-31.872-62.967    c-6.632-1.964-20.432-6.048-35.203,2.715c-12.389,7.352-53.89,7.352-66.278,0c-14.771-8.762-28.571-4.678-35.239-2.703    C24.405,38.279,17.95,62.644,9.018,96.366c-0.978,3.693-1.985,7.496-3.036,11.387c-7.955,29.447-7.977,57.341-0.056,71.06    c2.662,4.615,6.12,7.514,10.276,8.619c0.806,0.215,1.615,0.317,2.432,0.317c10.059-0.002,20.85-15.625,31.314-30.773    c4.849-7.023,9.429-13.653,12.175-15.785c2.365-1.836,9.957-4.859,34.116-4.538l30.619-0.022    c20.666,0.096,27.344,2.898,29.486,4.56c2.748,2.132,7.328,8.764,12.177,15.785c11.31,16.374,23.014,33.304,33.742,30.454    c4.156-1.106,7.612-4.004,10.276-8.619C220.46,165.092,220.438,137.198,212.483,107.751z M206.624,175.4    c-1.724,2.985-3.782,4.813-6.118,5.434c-6.112,1.642-18.789-16.756-26.371-27.735c-5.381-7.793-10.028-14.522-13.609-17.299    c-5.093-3.953-16.097-5.912-33.659-5.994l-30.59,0.022c-20.256-0.27-32.812,1.679-38.344,5.972    c-3.581,2.778-8.226,9.508-13.607,17.299c-7.581,10.979-20.265,29.382-26.371,27.735c-2.336-0.621-4.395-2.449-6.118-5.434    c-6.951-12.039-6.656-38.509,0.734-65.867c1.053-3.901,2.063-7.714,3.045-11.418c8.047-30.382,14.404-54.378,27.211-58.17    c3.289-0.975,8.093-2.396,13.722-2.396c4.883,0,10.388,1.072,16.062,4.437c14.717,8.731,58.528,8.731,73.245,0    c12.208-7.247,23.639-3.86,29.817-2.031c12.771,3.782,19.128,27.778,27.175,58.16c0.981,3.703,1.99,7.514,3.045,11.418    C213.28,136.891,213.575,163.359,206.624,175.4z" fill="#FFFFFF"/>
	</g>
</g>
<g>
	<g>
		<path d="M150.19,47.799c-7.528,0-13.653,6.125-13.653,13.653c0,7.528,6.125,13.653,13.653,13.653    c7.528,0,13.653-6.125,13.653-13.653C163.843,53.924,157.718,47.799,150.19,47.799z M150.19,68.277    c-3.765,0-6.827-3.062-6.827-6.827c0-3.765,3.062-6.827,6.827-6.827s6.827,3.062,6.827,6.827    C157.016,65.216,153.955,68.277,150.19,68.277z" fill="#FFFFFF"/>
	</g>
</g>
<g>
	<g>
		<path d="M150.19,88.759c-7.528,0-13.653,6.125-13.653,13.653s6.125,13.653,13.653,13.653c7.528,0,13.653-6.125,13.653-13.653    S157.718,88.759,150.19,88.759z M150.19,109.239c-3.765,0-6.827-3.062-6.827-6.827s3.062-6.827,6.827-6.827    s6.827,3.062,6.827,6.827S153.955,109.239,150.19,109.239z" fill="#FFFFFF"/>
	</g>
</g>
<g>
	<g>
		<path d="M126.296,68.279c-7.528,0-13.653,6.125-13.653,13.653c0,7.528,6.125,13.653,13.653,13.653    c7.528,0,13.653-6.125,13.653-13.653C139.95,74.404,133.824,68.279,126.296,68.279z M126.296,88.759    c-3.765,0-6.827-3.062-6.827-6.827s3.062-6.827,6.827-6.827c3.765,0,6.827,3.062,6.827,6.827S130.061,88.759,126.296,88.759z" fill="#FFFFFF"/>
	</g>
</g>
<g>
	<g>
		<path d="M174.083,68.279c-7.528,0-13.653,6.125-13.653,13.653c0,7.528,6.125,13.653,13.653,13.653    c7.528,0,13.653-6.125,13.653-13.653C187.736,74.404,181.611,68.279,174.083,68.279z M174.083,88.759    c-3.765,0-6.827-3.062-6.827-6.827s3.062-6.827,6.827-6.827s6.827,3.062,6.827,6.827S177.848,88.759,174.083,88.759z" fill="#FFFFFF"/>
	</g>
</g>
<g>
	<g>
		<path d="M44.376,58.039c-7.528,0-13.653,6.125-13.653,13.653c0,7.528,6.125,13.653,13.653,13.653S58.03,79.221,58.03,71.693    C58.03,64.164,51.904,58.039,44.376,58.039z M44.376,78.517c-3.765,0-6.827-3.062-6.827-6.827s3.062-6.827,6.827-6.827    s6.827,3.063,6.827,6.827C51.203,75.456,48.141,78.517,44.376,78.517z" fill="#FFFFFF"/>
	</g>
</g>
<g>
	<g>
		<path d="M78.51,95.586c-7.528,0-13.653,6.125-13.653,13.653c0,7.528,6.125,13.653,13.653,13.653    c7.528,0,13.653-6.125,13.653-13.653C92.163,101.711,86.038,95.586,78.51,95.586z M78.51,116.066    c-3.765,0-6.827-3.062-6.827-6.827s3.062-6.827,6.827-6.827s6.827,3.062,6.827,6.827S82.275,116.066,78.51,116.066z" fill="#FFFFFF"/>
	</g>
</g>
<g>
	<g>
		<path d="M44.376,95.586c-1.884,0-3.413,1.529-3.413,3.413v20.48c0,1.884,1.529,3.413,3.413,3.413s3.413-1.529,3.413-3.413v-20.48    C47.79,97.115,46.261,95.586,44.376,95.586z" fill="#FFFFFF"/>
	</g>
</g>
<g>
	<g>
		<path d="M54.616,105.826h-20.48c-1.884,0-3.413,1.529-3.413,3.413s1.529,3.413,3.413,3.413h20.48c1.884,0,3.413-1.529,3.413-3.413    S56.5,105.826,54.616,105.826z" fill="#FFFFFF"/>
	</g>
</g>
<g>
</g>
<g>
</g>
<g>
</g>
<g>
</g>
<g>
</g>
<g>
</g>
<g>
</g>
<g>
</g>
<g>
</g>
<g>
</g>
<g>
</g>
<g>
</g>
<g>
</g>
<g>
</g>
<g>
</g>
</svg>
